<svg width="24" height="28" viewBox="0 0 24 28" fill="none" xmlns="http://www.w3.org/2000/svg">
<path d="M17.5686 0.0140123C17.5091 -0.0524877 15.3653 0.0402623 13.4998 2.06501C11.6343 4.08801 11.9213 6.40851 11.9633 6.46801C12.0053 6.52751 14.6233 6.62026 16.2946 4.26651C17.9658 1.91276 17.6281 0.0822623 17.5686 0.0140123ZM23.3681 20.5468C23.2841 20.3788 19.2993 18.3873 19.6703 14.5583C20.0413 10.7275 22.6016 9.67751 22.6418 9.56376C22.6821 9.45001 21.5971 8.18126 20.4473 7.53901C19.6031 7.0862 18.6688 6.82678 17.7121 6.77951C17.5231 6.77426 16.8668 6.61326 15.5176 6.98251C14.6286 7.22576 12.6248 8.01326 12.0736 8.04476C11.5206 8.07626 9.87555 7.13126 8.1063 6.88101C6.97405 6.66226 5.77355 7.11026 4.9143 7.45501C4.0568 7.79801 2.4258 8.77451 1.2848 11.3698C0.143803 13.9633 0.740553 18.0723 1.16755 19.3498C1.59455 20.6255 2.2613 22.7168 3.3953 24.2428C4.4033 25.9648 5.7403 27.16 6.29855 27.566C6.8568 27.972 8.4318 28.2415 9.5238 27.6833C10.4023 27.1443 11.9878 26.8345 12.6143 26.8573C13.2391 26.88 14.4711 27.1268 15.7328 27.8005C16.7321 28.1453 17.6771 28.0018 18.6238 27.6168C19.5706 27.23 20.9408 25.7635 22.5403 22.7903C23.1476 21.4078 23.4241 20.6605 23.3681 20.5468Z" fill="black"/>
</svg>
